<svg width="25" height="25" viewBox="0 0 25 25" fill="none" xmlns="http://www.w3.org/2000/svg">
<path d="M0.869141 16.5137C1.33789 16.5137 1.72852 16.9043 1.72852 17.373V19.7949C1.72852 21.543 2.76368 22.5879 4.52148 22.5879H6.98242C7.45116 22.5879 7.84178 22.9785 7.8418 23.4473C7.8418 23.9258 7.45117 24.3164 6.98242 24.3164H4.52148C1.68946 24.3164 7.6382e-06 22.6074 0 19.7949V17.373C0 16.9043 0.390625 16.5137 0.869141 16.5137ZM23.4473 16.5137C23.9258 16.5137 24.3164 16.9043 24.3164 17.373V19.7949C24.3164 22.6074 22.627 24.3164 19.7949 24.3164H17.334C16.8652 24.3164 16.4746 23.9258 16.4746 23.4473C16.4746 22.9785 16.8652 22.5879 17.334 22.5879H19.7949C21.5527 22.5879 22.5879 21.543 22.5879 19.7949V17.373C22.5879 16.9044 22.9785 16.5137 23.4473 16.5137ZM11.416 4.33594V10.0586C11.416 10.9473 11.9141 11.4551 12.8027 11.4551H18.5352V17.6172C18.5352 19.1406 17.7734 19.9316 16.2402 19.9316H8.58398C7.07031 19.9316 6.28906 19.1504 6.28906 17.6172V6.65039C6.28906 5.12696 7.07032 4.33594 8.58398 4.33594H11.416ZM12.6465 4.41406C12.9199 4.46289 13.1934 4.65822 13.5059 4.9707L17.8906 9.35547C18.2031 9.67773 18.3984 9.95122 18.4473 10.2148H13.0957C12.793 10.2148 12.6465 10.0684 12.6465 9.77539V4.41406ZM6.98242 0C7.45117 1.05964e-06 7.8418 0.390625 7.8418 0.869141C7.8418 1.33789 7.45117 1.72851 6.98242 1.72852H4.52148C2.76367 1.72852 1.72852 2.77343 1.72852 4.52148V6.94336C1.72852 7.41211 1.33789 7.80273 0.869141 7.80273C0.390625 7.80273 0 7.41211 0 6.94336V4.52148C0 1.70898 1.68945 0 4.52148 0H6.98242ZM19.7949 0C22.627 8.44062e-06 24.3164 1.70899 24.3164 4.52148V6.94336C24.3164 7.41211 23.9258 7.80273 23.4473 7.80273C22.9785 7.80272 22.5879 7.4121 22.5879 6.94336V4.52148C22.5879 2.77344 21.5527 1.72852 19.7949 1.72852H17.334C16.8652 1.72851 16.4746 1.33789 16.4746 0.869141C16.4746 0.39063 16.8652 8.47609e-06 17.334 0H19.7949Z" fill="url(#paint0_radial_16_15)"/>
<defs>
<radialGradient id="paint0_radial_16_15" cx="0" cy="0" r="1" gradientUnits="userSpaceOnUse" gradientTransform="translate(12.1582 12.1582) rotate(90) scale(12.1582)">
<stop stop-color="#FFF200" stop-opacity="0.1"/>
<stop offset="1" stop-color="#FFF200"/>
</radialGradient>
</defs>
</svg>
